<svg width="35" height="31" viewBox="0 0 35 31" fill="none" xmlns="http://www.w3.org/2000/svg">
<path d="M3.93528 17.8032L3.93633 17.8041L16.2888 29.3363C16.2888 29.3363 16.2888 29.3363 16.2889 29.3364C16.6159 29.6415 17.0486 29.8124 17.5 29.8124C17.9514 29.8124 18.3841 29.6415 18.7111 29.3364C18.7112 29.3363 18.7112 29.3363 18.7112 29.3363L31.0637 17.8041L31.0647 17.8032C32.9387 16.0586 34 13.6103 34 11.0497V10.6533C34 6.3638 30.9013 2.70675 26.6735 2.00098L3.93528 17.8032ZM3.93528 17.8032C2.06126 16.0586 1 13.6103 1 11.0497V10.6533C1 6.3638 4.09871 2.70675 8.32651 2.00098L3.93528 17.8032ZM17.5 5.97665L16.7929 5.26955L15.9726 4.44923C13.9725 2.44913 11.1253 1.53459 8.32674 2.00094L17.5 5.97665ZM17.5 5.97665L18.2071 5.26955M17.5 5.97665L18.2071 5.26955M18.2071 5.26955L19.0274 4.44923C21.0275 2.44913 23.8747 1.53459 26.6733 2.00094L18.2071 5.26955Z" stroke="#2C1810" stroke-width="2"/>
</svg>
