<svg width="35" height="35" viewBox="0 0 35 35" fill="none" xmlns="http://www.w3.org/2000/svg">
<path d="M3.25391 20.5351L15.6064 32.0673C16.1191 32.5458 16.7959 32.8124 17.5 32.8124C18.2041 32.8124 18.8809 32.5458 19.3936 32.0673L31.7461 20.5351C33.8242 18.6005 35 15.8867 35 13.0497V12.6533C35 7.87494 31.5479 3.80072 26.8379 3.01459C23.7207 2.49506 20.5488 3.51361 18.3203 5.74213L17.5 6.56244L16.6797 5.74213C14.4512 3.51361 11.2793 2.49506 8.16211 3.01459C3.45215 3.80072 0 7.87494 0 12.6533V13.0497C0 15.8867 1.17578 18.6005 3.25391 20.5351Z" fill="#2C1810"/>
</svg>
