<svg width="24" height="24" viewBox="0 0 24 24" fill="none" xmlns="http://www.w3.org/2000/svg">
<path d="M21.2501 12C21.2501 12.19 21.1801 12.38 21.0301 12.53L14.9601 18.6C14.819 18.7395 14.6285 18.8177 14.4301 18.8177C14.2317 18.8177 14.0413 18.7395 13.9001 18.6C13.6101 18.31 13.6101 17.83 13.9001 17.54L19.4401 12L13.9001 6.45999C13.6101 6.16999 13.6101 5.68999 13.9001 5.39999C14.1901 5.10999 14.6701 5.10999 14.9601 5.39999L21.0301 11.47C21.1801 11.62 21.2501 11.81 21.2501 12Z" fill="#F8F8F4"/>
<path d="M21.08 12C21.08 12.41 20.74 12.75 20.33 12.75L3.5 12.75C3.09 12.75 2.75 12.41 2.75 12C2.75 11.59 3.09 11.25 3.5 11.25L20.33 11.25C20.74 11.25 21.08 11.59 21.08 12Z" fill="#F8F8F4"/>
</svg>
