<svg width="50" height="68" viewBox="0 0 50 68" fill="none" xmlns="http://www.w3.org/2000/svg">
<path d="M24.3562 39.1637C19.1794 43.7326 14.2244 46.5508 10.4136 47.4517C6.53607 48.3685 4.13759 47.2562 3.51553 44.6339C2.89347 42.0117 4.02515 37.7837 6.91978 32.7234C9.76455 27.7503 14.1095 22.3604 19.2862 17.7915C24.463 13.2225 29.418 10.4044 33.2288 9.50343C37.1063 8.5867 39.5048 9.69894 40.1269 12.3212C40.7489 14.9435 39.6173 19.1714 36.7226 24.2318C33.8779 29.2049 29.5329 34.5948 24.3562 39.1637Z" stroke="white" stroke-width="2"/>
<path d="M29.1998 56.5998C25.7331 56.5998 22.7998 55.8331 20.3998 54.2998C18.0331 52.7665 16.2498 50.6331 15.0498 47.8998C13.8831 45.1665 13.2998 42.0165 13.2998 38.4498C13.2998 34.8831 13.8831 31.7331 15.0498 28.9998C16.2498 26.2665 18.0331 24.1331 20.3998 22.5998C22.7998 21.0665 25.7331 20.2998 29.1998 20.2998C31.2998 20.2998 33.2331 20.5665 34.9998 21.0998C36.7998 21.5998 38.2331 22.3331 39.2998 23.2998C40.3998 24.2331 40.9498 25.3165 40.9498 26.5498C40.9498 27.8831 40.3331 28.7331 39.0998 29.0998C38.0331 27.5331 36.6165 26.2998 34.8498 25.3998C33.1165 24.4665 31.1998 23.9998 29.0998 23.9998C25.4331 23.9998 22.6498 25.3498 20.7498 28.0498C18.8498 30.7498 17.8998 34.2165 17.8998 38.4498C17.8998 42.6831 18.8498 46.1498 20.7498 48.8498C22.6498 51.5498 25.4331 52.8998 29.0998 52.8998C31.1998 52.8998 33.1165 52.4498 34.8498 51.5498C36.6165 50.6165 38.0331 49.3665 39.0998 47.7998C40.3331 48.1665 40.9498 49.0165 40.9498 50.3498C40.9498 51.5831 40.3998 52.6831 39.2998 53.6498C38.2331 54.5831 36.7998 55.3165 34.9998 55.8498C33.2331 56.3498 31.2998 56.5998 29.1998 56.5998Z" fill="white"/>
</svg>
