<svg width="50" height="68" viewBox="0 0 50 68" fill="none" xmlns="http://www.w3.org/2000/svg">
<path d="M24.3562 39.1633C19.1794 43.7322 14.2244 46.5504 10.4136 47.4513C6.53604 48.3681 4.13756 47.2558 3.5155 44.6335C2.89344 42.0113 4.02512 37.7833 6.91975 32.723C9.76452 27.7499 14.1095 22.36 19.2862 17.7911C24.463 13.2221 29.418 10.404 33.2288 9.50305C37.1063 8.58632 39.5048 9.69856 40.1269 12.3208C40.7489 14.9431 39.6173 19.171 36.7226 24.2314C33.8779 29.2045 29.5329 34.5944 24.3562 39.1633Z" stroke="#2F2F2F" stroke-width="2"/>
<path d="M29.2 56.6C25.7333 56.6 22.8 55.8333 20.4 54.3C18.0333 52.7667 16.25 50.6333 15.05 47.9C13.8833 45.1667 13.3 42.0167 13.3 38.45C13.3 34.8833 13.8833 31.7333 15.05 29C16.25 26.2667 18.0333 24.1333 20.4 22.6C22.8 21.0667 25.7333 20.3 29.2 20.3C31.3 20.3 33.2333 20.5667 35 21.1C36.8 21.6 38.2333 22.3333 39.3 23.3C40.4 24.2333 40.95 25.3167 40.95 26.55C40.95 27.8833 40.3333 28.7333 39.1 29.1C38.0333 27.5333 36.6167 26.3 34.85 25.4C33.1167 24.4667 31.2 24 29.1 24C25.4333 24 22.65 25.35 20.75 28.05C18.85 30.75 17.9 34.2167 17.9 38.45C17.9 42.6833 18.85 46.15 20.75 48.85C22.65 51.55 25.4333 52.9 29.1 52.9C31.2 52.9 33.1167 52.45 34.85 51.55C36.6167 50.6167 38.0333 49.3667 39.1 47.8C40.3333 48.1667 40.95 49.0167 40.95 50.35C40.95 51.5833 40.4 52.6833 39.3 53.65C38.2333 54.5833 36.8 55.3167 35 55.85C33.2333 56.35 31.3 56.6 29.2 56.6Z" fill="#2F2F2F"/>
</svg>
