<svg width="47" height="57" viewBox="0 0 47 57" fill="none" xmlns="http://www.w3.org/2000/svg">
<path d="M22.3562 33.1633C17.1794 37.7322 12.2244 40.5504 8.41363 41.4513C4.53604 42.3681 2.13756 41.2558 1.5155 38.6335C0.893439 36.0113 2.02512 31.7833 4.91975 26.723C7.76452 21.7499 12.1095 16.36 17.2862 11.7911C22.463 7.22215 27.418 4.40399 31.2288 3.50305C35.1063 2.58632 37.5048 3.69856 38.1269 6.32084C38.7489 8.94312 37.6173 13.171 34.7226 18.2314C31.8779 23.2045 27.5329 28.5944 22.3562 33.1633Z" stroke="#2F2F2F" stroke-width="2"/>
<path d="M31.4561 42.917C31.4561 42.3799 31.5863 41.9648 31.8467 41.6719C32.1234 41.3626 32.4326 41.208 32.7744 41.208C33.1325 41.208 33.4417 41.3382 33.7021 41.5986C33.9788 41.8428 34.1009 42.2253 34.0684 42.7461C33.9056 46.0339 33.0186 48.6787 31.4072 50.6807C29.861 52.6012 27.9242 53.5615 25.5967 53.5615C21.2021 53.5615 18.362 50.2738 17.0762 43.6982C16.5879 41.2731 16.3438 38.4167 16.3438 35.1289C16.3438 31.8249 16.5472 28.887 16.9541 26.3154C17.361 23.7275 17.9795 21.4814 18.8096 19.5771C20.5837 15.5081 23.1064 13.4736 26.3779 13.4736C28.917 13.4736 30.7969 14.4746 32.0176 16.4766C33.3034 18.6087 33.9463 22.0918 33.9463 26.9258C33.9463 27.4629 33.8242 27.8698 33.5801 28.1465C33.3359 28.4069 33.043 28.5371 32.7012 28.5371C31.9525 28.5371 31.5781 28.0651 31.5781 27.1211C31.5781 21.099 30.6178 17.5101 28.6973 16.3545C28.0137 15.9476 27.2161 15.7441 26.3047 15.7441C25.3932 15.7441 24.5713 16.0046 23.8389 16.5254C23.1227 17.0299 22.4798 17.738 21.9102 18.6494C21.3568 19.5446 20.8766 20.6107 20.4697 21.8477C20.0628 23.0684 19.7292 24.3867 19.4688 25.8027C18.9479 28.6673 18.6875 31.4993 18.6875 34.2988C18.6875 37.082 18.777 39.32 18.9561 41.0127C19.1351 42.6891 19.3874 44.1296 19.7129 45.334C20.0384 46.5221 20.4209 47.4987 20.8604 48.2637C21.3161 49.0124 21.8125 49.6064 22.3496 50.0459C23.2611 50.8109 24.4248 51.1934 25.8408 51.1934C27.4196 51.1934 28.7135 50.5505 29.7227 49.2646C30.9108 47.7835 31.4886 45.6676 31.4561 42.917Z" fill="#2F2F2F"/>
</svg>
