<svg width="15" height="16" viewBox="0 0 15 16" fill="none" xmlns="http://www.w3.org/2000/svg">
<path d="M7.94 0.919999C9.28667 0.919999 10.4867 1.22667 11.54 1.84C12.5933 2.44 13.4067 3.28 13.98 4.36C14.5667 5.42667 14.86 6.64667 14.86 8.02C14.86 9.39333 14.5667 10.62 13.98 11.7C13.4067 12.7667 12.5933 13.6067 11.54 14.22C10.4867 14.82 9.28667 15.12 7.94 15.12C6.58 15.12 5.37333 14.82 4.32 14.22C3.26667 13.6067 2.44667 12.7667 1.86 11.7C1.27333 10.62 0.98 9.39333 0.98 8.02C0.98 6.64667 1.27333 5.42667 1.86 4.36C2.44667 3.28 3.26667 2.44 4.32 1.84C5.37333 1.22667 6.58 0.919999 7.94 0.919999ZM7.94 1.72C6.7 1.72 5.62 1.98667 4.7 2.52C3.78 3.04 3.07333 3.77333 2.58 4.72C2.08667 5.66667 1.84 6.76667 1.84 8.02C1.84 9.26 2.08667 10.36 2.58 11.32C3.07333 12.2667 3.78 13.0067 4.7 13.54C5.62 14.0733 6.7 14.34 7.94 14.34C9.16667 14.34 10.2333 14.0733 11.14 13.54C12.06 13.0067 12.7667 12.2667 13.26 11.32C13.7533 10.36 14 9.26 14 8.02C14 6.76667 13.7533 5.66667 13.26 4.72C12.7667 3.77333 12.06 3.04 11.14 2.52C10.2333 1.98667 9.16667 1.72 7.94 1.72ZM7.9 3.38C7.1 3.38 6.36667 3.56667 5.7 3.94C5.04667 4.31333 4.52667 4.85333 4.14 5.56C3.75333 6.25333 3.56 7.06667 3.56 8C3.56 8.93333 3.75333 9.75333 4.14 10.46C4.52667 11.1533 5.04667 11.6933 5.7 12.08C6.36667 12.4533 7.1 12.64 7.9 12.64C8.9 12.64 9.76667 12.3733 10.5 11.84C11.2333 11.2933 11.7333 10.5667 12 9.66H10.32C9.92 10.7667 9.11333 11.32 7.9 11.32C7.1 11.32 6.44667 11.0333 5.94 10.46C5.43333 9.88667 5.18 9.07333 5.18 8.02C5.18 6.95333 5.43333 6.13333 5.94 5.56C6.44667 4.98667 7.1 4.7 7.9 4.7C8.48667 4.7 8.99333 4.84667 9.42 5.14C9.84667 5.42 10.1467 5.82667 10.32 6.36H12C11.7467 5.41333 11.2533 4.68 10.52 4.16C9.78667 3.64 8.91333 3.38 7.9 3.38Z" fill="black"/>
</svg>
