<svg width="243" height="65" viewBox="0 0 243 65" fill="none" xmlns="http://www.w3.org/2000/svg">
<path d="M31.2 53.6C27.7333 53.6 24.8 52.8333 22.4 51.3C20.0333 49.7667 18.25 47.6333 17.05 44.9C15.8833 42.1667 15.3 39.0167 15.3 35.45C15.3 31.8833 15.8833 28.7333 17.05 26C18.25 23.2667 20.0333 21.1333 22.4 19.6C24.8 18.0667 27.7333 17.3 31.2 17.3C33.3 17.3 35.2333 17.5667 37 18.1C38.8 18.6 40.2333 19.3333 41.3 20.3C42.4 21.2333 42.95 22.3167 42.95 23.55C42.95 24.8833 42.3333 25.7333 41.1 26.1C40.0333 24.5333 38.6167 23.3 36.85 22.4C35.1167 21.4667 33.2 21 31.1 21C27.4333 21 24.65 22.35 22.75 25.05C20.85 27.75 19.9 31.2167 19.9 35.45C19.9 39.6833 20.85 43.15 22.75 45.85C24.65 48.55 27.4333 49.9 31.1 49.9C33.2 49.9 35.1167 49.45 36.85 48.55C38.6167 47.6167 40.0333 46.3667 41.1 44.8C42.3333 45.1667 42.95 46.0167 42.95 47.35C42.95 48.5833 42.4 49.6833 41.3 50.65C40.2333 51.5833 38.8 52.3167 37 52.85C35.2333 53.35 33.3 53.6 31.2 53.6ZM47.7266 63.3C46.6266 63.3 45.7266 63.1 45.0266 62.7C44.3266 62.3 43.9766 61.7333 43.9766 61C43.9766 60.2333 44.3599 59.7167 45.1266 59.45C45.9266 59.8167 46.7099 60 47.4766 60C48.2432 60 48.8932 59.7167 49.4266 59.15C49.9599 58.6167 50.5099 57.6667 51.0766 56.3L53.3266 50.7L44.5766 29.4C44.4432 29.1333 44.3766 28.8333 44.3766 28.5C44.3766 28.0667 44.5432 27.7333 44.8766 27.5C45.2099 27.2333 45.7266 27.1 46.4266 27.1C47.0599 27.1 47.5932 27.2667 48.0266 27.6L55.3266 45.7L61.8766 29.5C62.2099 28.6667 62.5932 28.0667 63.0266 27.7C63.4932 27.3 64.0766 27.1 64.7766 27.1C65.5432 27.1 66.1599 27.3667 66.6266 27.9L54.9266 57.5C54.2266 59.3333 53.2599 60.75 52.0266 61.75C50.7932 62.7833 49.3599 63.3 47.7266 63.3ZM82.1723 26.9C84.1723 26.9 85.9223 27.4167 87.4223 28.45C88.9556 29.4833 90.1389 30.9667 90.9723 32.9C91.8056 34.8333 92.2223 37.0833 92.2223 39.65C92.2223 42.45 91.7223 44.9 90.7223 47C89.7223 49.1 88.3056 50.7333 86.4723 51.9C84.6389 53.0333 82.5223 53.6 80.1223 53.6C78.9556 53.6 77.8723 53.5 76.8723 53.3C75.8723 53.1333 74.7389 52.8667 73.4723 52.5C71.8056 52 70.4723 51.7 69.4723 51.6L69.1223 50.5C69.5889 49.4 69.9056 48.2 70.0723 46.9C70.2389 45.5667 70.3223 43.8333 70.3223 41.7V19.75C70.3223 18.8167 70.5556 18.0833 71.0223 17.55C71.5223 16.9833 72.2056 16.7 73.0723 16.7C73.5389 16.7 73.9889 16.7667 74.4223 16.9V31.25C75.3556 29.8833 76.4389 28.8167 77.6723 28.05C78.9389 27.2833 80.4389 26.9 82.1723 26.9ZM79.8723 50.3C82.4389 50.3 84.4389 49.35 85.8723 47.45C87.3056 45.55 88.0223 42.9 88.0223 39.5C88.0223 36.5 87.4389 34.2 86.2723 32.6C85.1389 31 83.5223 30.2 81.4223 30.2C79.3223 30.2 77.6389 31 76.3723 32.6C75.1389 34.1667 74.5223 36.4167 74.5223 39.35V41.15C74.5223 43.15 74.4556 44.7167 74.3223 45.85C74.1889 46.9833 73.8889 48.1167 73.4223 49.25L75.5223 49.7C76.1889 49.8667 76.8889 50.0167 77.6223 50.15C78.3556 50.25 79.1056 50.3 79.8723 50.3ZM106.458 53.6C104.158 53.6 102.124 53.0667 100.358 52C98.5911 50.9333 97.2245 49.4 96.2578 47.4C95.2911 45.4 94.8078 43.0667 94.8078 40.4C94.8078 37.7 95.2911 35.3333 96.2578 33.3C97.2578 31.2667 98.6245 29.7 100.358 28.6C102.124 27.4667 104.158 26.9 106.458 26.9C109.724 26.9 112.274 28.0167 114.108 30.25C115.974 32.45 116.908 35.45 116.908 39.25C116.908 40.1833 116.774 40.8167 116.508 41.15C116.274 41.4833 115.774 41.65 115.008 41.65H98.9078C98.9078 44.2833 99.5745 46.3833 100.908 47.95C102.274 49.5167 104.091 50.3 106.358 50.3C108.024 50.3 109.524 49.9333 110.858 49.2C112.224 48.4667 113.308 47.5 114.108 46.3C115.108 46.6667 115.608 47.4167 115.608 48.55C115.608 49.45 115.158 50.2833 114.258 51.05C113.358 51.8167 112.191 52.4333 110.758 52.9C109.358 53.3667 107.924 53.6 106.458 53.6ZM112.808 38.3C112.741 35.6 112.208 33.5667 111.208 32.2C110.208 30.8 108.691 30.1 106.658 30.1C104.524 30.1 102.808 30.8333 101.508 32.3C100.208 33.7667 99.3745 35.9 99.0078 38.7L112.808 38.3ZM122.694 53.3C122.194 53.3 121.727 53.2333 121.294 53.1V30.25C121.294 29.3167 121.527 28.5833 121.994 28.05C122.46 27.4833 123.127 27.2 123.994 27.2C124.494 27.2 124.96 27.2667 125.394 27.4V34.25C126.094 31.85 127.094 30.05 128.394 28.85C129.694 27.65 131.194 27.05 132.894 27.05C134.76 27.05 135.694 27.8833 135.694 29.55C135.694 30.5167 135.36 31.25 134.694 31.75C134.36 31.5833 133.86 31.5 133.194 31.5C130.66 31.5 128.727 32.6167 127.394 34.85C126.06 37.05 125.394 40.6333 125.394 45.6V50.25C125.394 51.1833 125.16 51.9333 124.694 52.5C124.227 53.0333 123.56 53.3 122.694 53.3ZM159.533 44.4C160.733 47.5 161.55 49.5167 161.983 50.45C162.45 51.35 162.95 52 163.483 52.4V52.85C162.683 53.15 161.85 53.3 160.983 53.3C160.083 53.3 159.35 53.0833 158.783 52.65C158.25 52.1833 157.75 51.4667 157.283 50.5C156.817 49.5333 156.167 47.95 155.333 45.75C154.4 43.3167 153.6 41.5667 152.933 40.5C152.3 39.4 151.417 38.55 150.283 37.95C150.017 37.9833 149.633 38 149.133 38H144.383V50.05C144.383 51.05 144.117 51.85 143.583 52.45C143.083 53.0167 142.367 53.3 141.433 53.3C140.967 53.3 140.483 53.2333 139.983 53.1V27.3C139.983 25.0333 139.9 23.3167 139.733 22.15C139.6 20.95 139.317 19.85 138.883 18.85L139.283 17.8C142.483 17.4667 145.433 17.3 148.133 17.3C150.867 17.3 153.217 17.7333 155.183 18.6C157.183 19.4667 158.717 20.6833 159.783 22.25C160.85 23.8167 161.383 25.6333 161.383 27.7C161.383 29.9 160.783 31.8333 159.583 33.5C158.417 35.1333 156.767 36.3333 154.633 37.1C155.633 37.6 156.483 38.3833 157.183 39.45C157.883 40.5167 158.667 42.1667 159.533 44.4ZM143.583 21.25C143.917 22.05 144.133 22.9333 144.233 23.9C144.333 24.8333 144.383 25.9667 144.383 27.3V34.4H149.033C151.5 34.4 153.417 33.8167 154.783 32.65C156.183 31.4833 156.883 29.8167 156.883 27.65C156.883 25.55 156.2 23.9167 154.833 22.75C153.467 21.5833 151.417 21 148.683 21C147.217 21 145.517 21.0833 143.583 21.25ZM177.042 53.6C174.742 53.6 172.708 53.0667 170.942 52C169.175 50.9333 167.808 49.4 166.842 47.4C165.875 45.4 165.392 43.0667 165.392 40.4C165.392 37.7 165.875 35.3333 166.842 33.3C167.842 31.2667 169.208 29.7 170.942 28.6C172.708 27.4667 174.742 26.9 177.042 26.9C180.308 26.9 182.858 28.0167 184.692 30.25C186.558 32.45 187.492 35.45 187.492 39.25C187.492 40.1833 187.358 40.8167 187.092 41.15C186.858 41.4833 186.358 41.65 185.592 41.65H169.492C169.492 44.2833 170.158 46.3833 171.492 47.95C172.858 49.5167 174.675 50.3 176.942 50.3C178.608 50.3 180.108 49.9333 181.442 49.2C182.808 48.4667 183.892 47.5 184.692 46.3C185.692 46.6667 186.192 47.4167 186.192 48.55C186.192 49.45 185.742 50.2833 184.842 51.05C183.942 51.8167 182.775 52.4333 181.342 52.9C179.942 53.3667 178.508 53.6 177.042 53.6ZM183.392 38.3C183.325 35.6 182.792 33.5667 181.792 32.2C180.792 30.8 179.275 30.1 177.242 30.1C175.108 30.1 173.392 30.8333 172.092 32.3C170.792 33.7667 169.958 35.9 169.592 38.7L183.392 38.3ZM199.228 53.6C196.494 53.6 194.344 52.9 192.778 51.5C191.244 50.0667 190.478 48.15 190.478 45.75C190.478 43.2167 191.344 41.1833 193.078 39.65C194.811 38.1167 197.194 37.35 200.228 37.35C201.561 37.35 202.661 37.4833 203.528 37.75C204.428 38.0167 205.278 38.4 206.078 38.9V36.5C206.078 34.5 205.544 32.9667 204.478 31.9C203.411 30.8 201.861 30.25 199.828 30.25C198.294 30.25 196.944 30.5667 195.778 31.2C194.644 31.8 193.628 32.7167 192.728 33.95C191.628 33.55 191.078 32.7833 191.078 31.65C191.078 30.1833 191.961 29.0333 193.728 28.2C195.528 27.3667 197.628 26.95 200.028 26.95C203.328 26.95 205.828 27.8 207.528 29.5C209.228 31.1667 210.078 33.5 210.078 36.5V50.25C210.078 51.1833 209.828 51.9333 209.328 52.5C208.861 53.0333 208.194 53.3 207.328 53.3C206.928 53.3 206.478 53.2333 205.978 53.1V50.5C205.244 51.5667 204.344 52.35 203.278 52.85C202.211 53.35 200.861 53.6 199.228 53.6ZM199.878 50.4C201.778 50.4 203.278 49.95 204.378 49.05C205.511 48.15 206.078 46.9333 206.078 45.4V44.15C206.078 42.9833 205.628 42.0833 204.728 41.45C203.828 40.7833 202.511 40.45 200.778 40.45C198.778 40.45 197.244 40.9 196.178 41.8C195.111 42.7 194.578 44 194.578 45.7C194.578 47.2333 195.028 48.4 195.928 49.2C196.828 50 198.144 50.4 199.878 50.4ZM223.98 53.65C221.947 53.65 220.163 53.1333 218.63 52.1C217.097 51.0333 215.913 49.5333 215.08 47.6C214.28 45.6333 213.88 43.35 213.88 40.75C213.88 37.9833 214.33 35.5667 215.23 33.5C216.163 31.4 217.48 29.7833 219.18 28.65C220.88 27.5167 222.863 26.95 225.13 26.95C226.563 26.95 227.797 27.1833 228.83 27.65C229.897 28.0833 230.88 28.7 231.78 29.5V19.75C231.78 18.8167 232.013 18.0833 232.48 17.55C232.98 16.9833 233.663 16.7 234.53 16.7C234.997 16.7 235.447 16.7667 235.88 16.9V50.25C235.88 51.1833 235.63 51.9333 235.13 52.5C234.663 53.0333 233.997 53.3 233.13 53.3C232.73 53.3 232.28 53.2333 231.78 53.1V49.2C230.813 50.6667 229.697 51.7833 228.43 52.55C227.163 53.2833 225.68 53.65 223.98 53.65ZM224.48 50.35C226.68 50.35 228.463 49.45 229.83 47.65C231.197 45.85 231.88 43.4 231.88 40.3V37.7C231.88 35.3667 231.33 33.55 230.23 32.25C229.163 30.9167 227.613 30.25 225.58 30.25C223.213 30.25 221.363 31.1833 220.03 33.05C218.73 34.8833 218.08 37.4833 218.08 40.85C218.08 43.9167 218.63 46.2667 219.73 47.9C220.83 49.5333 222.413 50.35 224.48 50.35Z" fill="#2F2F2F"/>
<path d="M24.7025 39.1633C19.5257 43.7322 14.5707 46.5504 10.7599 47.4513C6.88235 48.3681 4.48387 47.2558 3.86181 44.6335C3.23975 42.0113 4.37143 37.7833 7.26606 32.723C10.1108 27.7499 14.4558 22.36 19.6325 17.7911C24.8093 13.2221 29.7643 10.404 33.5751 9.50305C37.4527 8.58632 39.8511 9.69857 40.4732 12.3208C41.0953 14.9431 39.9636 19.171 37.0689 24.2314C34.2242 29.2045 29.8792 34.5944 24.7025 39.1633Z" stroke="#2F2F2F" stroke-width="2"/>
</svg>
