<svg width="310" height="98" viewBox="0 0 310 98" fill="none" xmlns="http://www.w3.org/2000/svg">
<path d="M67.8055 14.1921C68.4415 15.3918 68.6272 17.2794 68.0136 20.0789C67.4019 22.8694 66.0514 26.2691 63.9824 30.0724C59.8535 37.6625 53.0966 46.4347 44.6695 54.5054C36.2424 62.5761 27.8672 68.2959 21.1814 71.0631C17.8312 72.4497 14.9994 73.0554 12.8373 72.9214C10.6682 72.7869 9.40134 71.9347 8.76534 70.7351C8.12934 69.5354 7.94365 67.6478 8.55724 64.8483C9.16889 62.0578 10.5194 58.6581 12.5884 54.8548C16.7173 47.2647 23.4742 38.4925 31.9013 30.4218C40.3284 22.3511 48.7036 16.6313 55.3894 13.8641C58.7396 12.4775 61.5714 11.8718 63.7335 12.0058C65.9026 12.1403 67.1695 12.9925 67.8055 14.1921Z" stroke="#413D3F" stroke-width="4"/>
<path d="M64.68 31.4C65.56 31.84 66.06 32.52 66.18 33.44C66.34 34.36 66.12 35.2 65.52 35.96C65.08 36.56 64.5 36.9 63.78 36.98C63.1 37.06 62.42 36.92 61.74 36.56C60.58 35.96 59.36 35.48 58.08 35.12C56.8 34.76 55.44 34.58 54 34.58C51.72 34.58 49.66 34.96 47.82 35.72C46.02 36.44 44.46 37.5 43.14 38.9C41.82 40.26 40.8 41.88 40.08 43.76C39.4 45.64 39.06 47.72 39.06 50C39.06 52.52 39.44 54.76 40.2 56.72C40.96 58.64 42 60.28 43.32 61.64C44.68 62.96 46.26 63.96 48.06 64.64C49.9 65.28 51.88 65.6 54 65.6C55.36 65.6 56.68 65.44 57.96 65.12C59.28 64.8 60.52 64.32 61.68 63.68C62.4 63.32 63.1 63.2 63.78 63.32C64.5 63.4 65.08 63.74 65.52 64.34C66.2 65.18 66.44 66.04 66.24 66.92C66.08 67.76 65.58 68.4 64.74 68.84C63.74 69.4 62.64 69.88 61.44 70.28C60.24 70.68 59.02 71 57.78 71.24C56.54 71.48 55.28 71.6 54 71.6C51.12 71.6 48.4 71.12 45.84 70.16C43.28 69.2 41 67.8 39 65.96C37 64.12 35.42 61.86 34.26 59.18C33.14 56.5 32.58 53.44 32.58 50C32.58 46.92 33.1 44.08 34.14 41.48C35.22 38.84 36.72 36.58 38.64 34.7C40.6 32.78 42.88 31.3 45.48 30.26C48.08 29.18 50.92 28.64 54 28.64C55.92 28.64 57.78 28.88 59.58 29.36C61.42 29.84 63.12 30.52 64.68 31.4ZM90.3445 38.9C93.1045 38.9 95.2445 39.5 96.7645 40.7C98.2845 41.86 99.3445 43.44 99.9445 45.44C100.585 47.44 100.905 49.64 100.905 52.04V67.94C100.905 68.82 100.605 69.56 100.005 70.16C99.4445 70.72 98.7445 71 97.9045 71C97.0245 71 96.3045 70.72 95.7445 70.16C95.1845 69.56 94.9045 68.82 94.9045 67.94V52.04C94.9045 50.64 94.7045 49.36 94.3045 48.2C93.9445 47.04 93.2845 46.12 92.3245 45.44C91.4045 44.76 90.1045 44.42 88.4245 44.42C86.8645 44.42 85.4645 44.76 84.2245 45.44C83.0245 46.12 82.0845 47.04 81.4045 48.2C80.7645 49.36 80.4445 50.64 80.4445 52.04V67.94C80.4445 68.82 80.1445 69.56 79.5445 70.16C78.9845 70.72 78.2845 71 77.4445 71C76.5645 71 75.8445 70.72 75.2845 70.16C74.7245 69.56 74.4445 68.82 74.4445 67.94V29.66C74.4445 28.78 74.7245 28.06 75.2845 27.5C75.8445 26.9 76.5645 26.6 77.4445 26.6C78.2845 26.6 78.9845 26.9 79.5445 27.5C80.1445 28.06 80.4445 28.78 80.4445 29.66V46.04L79.3645 46.64C79.6445 45.76 80.1045 44.86 80.7445 43.94C81.4245 43.02 82.2445 42.18 83.2045 41.42C84.2045 40.66 85.3045 40.06 86.5045 39.62C87.7045 39.14 88.9845 38.9 90.3445 38.9ZM137.209 38.96C138.089 38.96 138.809 39.26 139.369 39.86C139.929 40.42 140.209 41.14 140.209 42.02V67.94C140.209 68.82 139.929 69.56 139.369 70.16C138.809 70.72 138.089 71 137.209 71C136.369 71 135.649 70.72 135.049 70.16C134.489 69.56 134.209 68.82 134.209 67.94V63.62L135.469 63.8C135.469 64.52 135.169 65.32 134.569 66.2C134.009 67.08 133.229 67.94 132.229 68.78C131.229 69.58 130.049 70.26 128.689 70.82C127.329 71.34 125.869 71.6 124.309 71.6C121.549 71.6 119.069 70.9 116.869 69.5C114.669 68.06 112.929 66.1 111.649 63.62C110.369 61.14 109.729 58.32 109.729 55.16C109.729 51.92 110.369 49.08 111.649 46.64C112.929 44.16 114.649 42.22 116.809 40.82C119.009 39.42 121.449 38.72 124.129 38.72C125.849 38.72 127.429 39 128.869 39.56C130.349 40.12 131.629 40.84 132.709 41.72C133.789 42.6 134.609 43.54 135.169 44.54C135.769 45.5 136.069 46.42 136.069 47.3L134.209 47.48V42.02C134.209 41.18 134.489 40.46 135.049 39.86C135.649 39.26 136.369 38.96 137.209 38.96ZM124.969 66.08C126.849 66.08 128.509 65.6 129.949 64.64C131.389 63.68 132.509 62.38 133.309 60.74C134.109 59.06 134.509 57.2 134.509 55.16C134.509 53.08 134.109 51.22 133.309 49.58C132.509 47.94 131.389 46.64 129.949 45.68C128.509 44.72 126.849 44.24 124.969 44.24C123.129 44.24 121.489 44.72 120.049 45.68C118.649 46.64 117.529 47.94 116.689 49.58C115.889 51.22 115.489 53.08 115.489 55.16C115.489 57.2 115.889 59.06 116.689 60.74C117.529 62.38 118.649 63.68 120.049 64.64C121.489 65.6 123.129 66.08 124.969 66.08ZM166.615 38.9C169.415 38.9 171.895 39.6 174.055 41C176.255 42.4 177.995 44.32 179.275 46.76C180.555 49.16 181.195 51.96 181.195 55.16C181.195 58.36 180.555 61.2 179.275 63.68C177.995 66.12 176.275 68.04 174.115 69.44C171.955 70.84 169.515 71.54 166.795 71.54C165.275 71.54 163.835 71.3 162.475 70.82C161.115 70.34 159.915 69.72 158.875 68.96C157.835 68.16 156.975 67.32 156.295 66.44C155.655 65.56 155.255 64.74 155.095 63.98L156.715 63.2V79.94C156.715 80.82 156.415 81.54 155.815 82.1C155.255 82.7 154.555 83 153.715 83C152.835 83 152.115 82.7 151.555 82.1C150.995 81.54 150.715 80.82 150.715 79.94V42.38C150.715 41.54 150.995 40.82 151.555 40.22C152.115 39.62 152.835 39.32 153.715 39.32C154.555 39.32 155.255 39.62 155.815 40.22C156.415 40.82 156.715 41.54 156.715 42.38V46.52L155.755 45.98C155.875 45.22 156.255 44.44 156.895 43.64C157.535 42.8 158.335 42.02 159.295 41.3C160.295 40.58 161.415 40 162.655 39.56C163.935 39.12 165.255 38.9 166.615 38.9ZM165.955 44.42C164.035 44.42 162.355 44.9 160.915 45.86C159.515 46.78 158.415 48.04 157.615 49.64C156.815 51.24 156.415 53.08 156.415 55.16C156.415 57.2 156.815 59.06 157.615 60.74C158.415 62.38 159.515 63.68 160.915 64.64C162.355 65.56 164.035 66.02 165.955 66.02C167.835 66.02 169.475 65.56 170.875 64.64C172.275 63.68 173.375 62.38 174.175 60.74C175.015 59.06 175.435 57.2 175.435 55.16C175.435 53.12 175.015 51.3 174.175 49.7C173.375 48.06 172.275 46.78 170.875 45.86C169.475 44.9 167.835 44.42 165.955 44.42ZM189.66 39.8H203.76C204.56 39.8 205.22 40.08 205.74 40.64C206.3 41.16 206.58 41.82 206.58 42.62C206.58 43.38 206.3 44.02 205.74 44.54C205.22 45.06 204.56 45.32 203.76 45.32H189.66C188.86 45.32 188.18 45.06 187.62 44.54C187.1 43.98 186.84 43.32 186.84 42.56C186.84 41.76 187.1 41.1 187.62 40.58C188.18 40.06 188.86 39.8 189.66 39.8ZM195.96 32C196.84 32 197.56 32.3 198.12 32.9C198.68 33.46 198.96 34.18 198.96 35.06V62.9C198.96 63.62 199.08 64.2 199.32 64.64C199.56 65.08 199.88 65.38 200.28 65.54C200.72 65.7 201.16 65.78 201.6 65.78C202.04 65.78 202.42 65.7 202.74 65.54C203.1 65.38 203.52 65.3 204 65.3C204.48 65.3 204.92 65.52 205.32 65.96C205.72 66.4 205.92 67 205.92 67.76C205.92 68.72 205.4 69.5 204.36 70.1C203.32 70.7 202.2 71 201 71C200.32 71 199.52 70.94 198.6 70.82C197.68 70.7 196.78 70.4 195.9 69.92C195.06 69.44 194.36 68.68 193.8 67.64C193.24 66.56 192.96 65.06 192.96 63.14V35.06C192.96 34.18 193.24 33.46 193.8 32.9C194.4 32.3 195.12 32 195.96 32ZM229.732 71.6C226.412 71.6 223.532 70.92 221.092 69.56C218.652 68.16 216.752 66.26 215.392 63.86C214.072 61.42 213.412 58.64 213.412 55.52C213.412 52 214.112 49 215.512 46.52C216.952 44 218.812 42.08 221.092 40.76C223.372 39.4 225.792 38.72 228.352 38.72C230.312 38.72 232.172 39.12 233.932 39.92C235.692 40.68 237.252 41.76 238.612 43.16C240.012 44.52 241.112 46.14 241.912 48.02C242.712 49.86 243.132 51.88 243.172 54.08C243.132 54.88 242.812 55.54 242.212 56.06C241.612 56.58 240.912 56.84 240.112 56.84H216.772L215.332 51.74H237.892L236.752 52.82V51.32C236.672 49.92 236.212 48.7 235.372 47.66C234.532 46.58 233.492 45.76 232.252 45.2C231.012 44.6 229.712 44.3 228.352 44.3C227.152 44.3 225.992 44.5 224.872 44.9C223.792 45.26 222.812 45.86 221.932 46.7C221.092 47.54 220.412 48.66 219.892 50.06C219.412 51.42 219.172 53.12 219.172 55.16C219.172 57.36 219.632 59.28 220.552 60.92C221.472 62.56 222.712 63.84 224.272 64.76C225.832 65.64 227.552 66.08 229.432 66.08C230.912 66.08 232.132 65.94 233.092 65.66C234.052 65.34 234.852 64.96 235.492 64.52C236.132 64.08 236.692 63.66 237.172 63.26C237.772 62.9 238.372 62.72 238.972 62.72C239.692 62.72 240.292 62.98 240.772 63.5C241.252 63.98 241.492 64.56 241.492 65.24C241.492 66.12 241.052 66.92 240.172 67.64C239.092 68.68 237.592 69.6 235.672 70.4C233.792 71.2 231.812 71.6 229.732 71.6ZM255.054 71C254.174 71 253.454 70.72 252.894 70.16C252.334 69.56 252.054 68.82 252.054 67.94V42.5C252.054 41.62 252.334 40.9 252.894 40.34C253.454 39.74 254.174 39.44 255.054 39.44C255.894 39.44 256.594 39.74 257.154 40.34C257.754 40.9 258.054 41.62 258.054 42.5V49.22L257.454 46.64C257.774 45.52 258.254 44.48 258.894 43.52C259.574 42.56 260.374 41.72 261.294 41C262.214 40.28 263.234 39.72 264.354 39.32C265.514 38.92 266.714 38.72 267.954 38.72C268.994 38.72 269.894 39 270.654 39.56C271.414 40.12 271.794 40.82 271.794 41.66C271.794 42.74 271.514 43.54 270.954 44.06C270.394 44.54 269.774 44.78 269.094 44.78C268.494 44.78 267.914 44.66 267.354 44.42C266.794 44.14 266.134 44 265.374 44C264.534 44 263.674 44.22 262.794 44.66C261.914 45.1 261.114 45.76 260.394 46.64C259.674 47.48 259.094 48.48 258.654 49.64C258.254 50.8 258.054 52.1 258.054 53.54V67.94C258.054 68.82 257.754 69.56 257.154 70.16C256.594 70.72 255.894 71 255.054 71ZM307.153 28.88C307.953 28.88 308.613 29.18 309.133 29.78C309.693 30.34 309.973 30.96 309.973 31.64C309.973 32.28 309.753 32.9 309.313 33.5L296.713 50.36L293.293 45.62L304.753 30.32C305.433 29.36 306.233 28.88 307.153 28.88ZM279.793 28.82C280.753 28.82 281.573 29.24 282.253 30.08L309.313 66.44C309.753 66.96 309.973 67.56 309.973 68.24C309.973 69.2 309.633 69.94 308.953 70.46C308.273 70.98 307.593 71.24 306.913 71.24C305.953 71.24 305.153 70.82 304.513 69.98L277.393 33.68C276.953 33.12 276.733 32.52 276.733 31.88C276.733 31 277.053 30.28 277.693 29.72C278.333 29.12 279.033 28.82 279.793 28.82ZM279.373 71.24C278.613 71.24 277.973 70.98 277.453 70.46C276.933 69.9 276.673 69.28 276.673 68.6C276.673 67.92 276.913 67.24 277.393 66.56L290.113 49.34L293.413 54.2L281.833 69.86C281.193 70.78 280.373 71.24 279.373 71.24Z" fill="#413D3F"/>
</svg>
