<svg width="235" height="60" viewBox="0 0 235 60" fill="none" xmlns="http://www.w3.org/2000/svg">
<path fill-rule="evenodd" clip-rule="evenodd" d="M14.7483 36.5485C12.3972 37.921 10.2299 38.8234 8.3636 39.2453C4.49657 40.1195 2.58897 38.8429 2.12702 36.8956C1.66507 34.9482 2.41135 31.3293 5.28239 26.2566C8.0431 21.3788 12.3334 16.0039 17.5141 11.4315C22.6948 6.85913 27.6082 4.11095 31.3266 3.27035C35.1936 2.39616 37.1012 3.67278 37.5632 5.62012C37.9528 7.26276 37.4828 10.0948 35.6029 13.9855C33.9446 13.5285 32.1434 13.3 30.1994 13.3C26.7327 13.3 23.7994 14.0666 21.3994 15.6C19.0327 17.1333 17.2494 19.2666 16.0494 22C14.8827 24.7333 14.2994 27.8833 14.2994 31.45C14.2994 33.2564 14.449 34.9559 14.7483 36.5485ZM15.3282 38.9192C15.5369 39.6021 15.7773 40.2624 16.0494 40.9C17.2494 43.6333 19.0327 45.7666 21.3994 47.3C23.7994 48.8333 26.7327 49.6 30.1994 49.6C32.2994 49.6 34.2327 49.35 35.9994 48.85C37.7994 48.3166 39.2327 47.5833 40.2994 46.65C41.3994 45.6833 41.9494 44.5833 41.9494 43.35C41.9494 42.0166 41.3327 41.1666 40.0994 40.8C39.0327 42.3666 37.6161 43.6166 35.8494 44.55C34.1161 45.45 32.1994 45.9 30.0994 45.9C26.4327 45.9 23.6494 44.55 21.7494 41.85C20.6128 40.2347 19.8161 38.3451 19.3594 36.1811C20.4687 35.3422 21.5952 34.4209 22.7301 33.4193C27.9529 28.8098 32.3933 23.3448 35.4022 18.1715C35.5526 18.2443 35.7017 18.3204 35.8494 18.4C37.6161 19.3 39.0327 20.5333 40.0994 22.1C41.3327 21.7333 41.9494 20.8833 41.9494 19.55C41.9494 18.3166 41.3994 17.2333 40.2994 16.3C39.5048 15.5799 38.5067 14.9893 37.3052 14.5281C39.1921 10.4298 39.9994 6.71648 39.3626 4.03199C37.7692 -2.68462 27.7393 -0.417243 16.9601 9.09633C6.18091 18.6099 -1.26571 31.7671 0.327616 38.4837C1.54511 43.616 7.68854 43.5027 15.3282 38.9192ZM33.6772 17.5027C30.9173 22.0376 26.92 26.8973 22.1761 31.0842C21.1013 32.0327 20.038 32.9028 18.9945 33.6936C18.9311 32.9713 18.8994 32.2235 18.8994 31.45C18.8994 27.2166 19.8494 23.75 21.7494 21.05C23.6494 18.35 26.4327 17 30.0994 17C31.3578 17 32.5505 17.1676 33.6772 17.5027ZM44.026 58.7C44.726 59.1 45.626 59.3 46.726 59.3C48.3593 59.3 49.7926 58.7833 51.026 57.75C52.2593 56.75 53.226 55.3333 53.926 53.5L65.626 23.9C65.1593 23.3666 64.5426 23.1 63.776 23.1C63.076 23.1 62.4926 23.3 62.026 23.7C61.5926 24.0666 61.2093 24.6666 60.876 25.5L54.326 41.7L47.026 23.6C46.5926 23.2666 46.0593 23.1 45.426 23.1C44.726 23.1 44.2093 23.2333 43.876 23.5C43.5426 23.7333 43.376 24.0666 43.376 24.5C43.376 24.8333 43.4426 25.1333 43.576 25.4L52.326 46.7L50.076 52.3C49.5093 53.6666 48.9593 54.6166 48.426 55.15C47.8926 55.7166 47.2426 56 46.476 56C45.7093 56 44.926 55.8166 44.126 55.45C43.3593 55.7166 42.976 56.2333 42.976 57C42.976 57.7333 43.326 58.3 44.026 58.7ZM86.4217 24.45C84.9217 23.4166 83.1717 22.9 81.1717 22.9C79.4383 22.9 77.9383 23.2833 76.6717 24.05C75.4383 24.8166 74.355 25.8833 73.4217 27.25V12.9C72.9883 12.7666 72.5383 12.7 72.0717 12.7C71.205 12.7 70.5217 12.9833 70.0217 13.55C69.555 14.0833 69.3217 14.8166 69.3217 15.75V37.7C69.3217 39.8333 69.2383 41.5666 69.0717 42.9C68.905 44.2 68.5883 45.4 68.1217 46.5L68.4717 47.6C69.4717 47.7 70.805 48 72.4717 48.5C73.7383 48.8666 74.8717 49.1333 75.8717 49.3C76.8717 49.5 77.955 49.6 79.1217 49.6C81.5217 49.6 83.6383 49.0333 85.4717 47.9C87.305 46.7333 88.7217 45.1 89.7217 43C90.7217 40.9 91.2217 38.45 91.2217 35.65C91.2217 33.0833 90.805 30.8333 89.9717 28.9C89.1383 26.9666 87.955 25.4833 86.4217 24.45ZM84.8717 43.45C83.4383 45.35 81.4383 46.3 78.8717 46.3C78.105 46.3 77.355 46.25 76.6217 46.15C75.8883 46.0166 75.1883 45.8666 74.5217 45.7L72.4217 45.25C72.8883 44.1166 73.1883 42.9833 73.3217 41.85C73.455 40.7166 73.5217 39.15 73.5217 37.15V35.35C73.5217 32.4166 74.1383 30.1666 75.3717 28.6C76.6383 27 78.3217 26.2 80.4217 26.2C82.5217 26.2 84.1383 27 85.2717 28.6C86.4383 30.2 87.0217 32.5 87.0217 35.5C87.0217 38.9 86.305 41.55 84.8717 43.45ZM99.3572 48C101.124 49.0666 103.157 49.6 105.457 49.6C106.924 49.6 108.357 49.3666 109.757 48.9C111.191 48.4333 112.357 47.8166 113.257 47.05C114.157 46.2833 114.607 45.45 114.607 44.55C114.607 43.4166 114.107 42.6666 113.107 42.3C112.307 43.5 111.224 44.4666 109.857 45.2C108.524 45.9333 107.024 46.3 105.357 46.3C103.091 46.3 101.274 45.5166 99.9072 43.95C98.5739 42.3833 97.9072 40.2833 97.9072 37.65H114.007C114.774 37.65 115.274 37.4833 115.507 37.15C115.774 36.8166 115.907 36.1833 115.907 35.25C115.907 31.45 114.974 28.45 113.107 26.25C111.274 24.0166 108.724 22.9 105.457 22.9C103.157 22.9 101.124 23.4666 99.3572 24.6C97.6239 25.7 96.2572 27.2666 95.2572 29.3C94.2905 31.3333 93.8072 33.7 93.8072 36.4C93.8072 39.0666 94.2905 41.4 95.2572 43.4C96.2239 45.4 97.5905 46.9333 99.3572 48ZM110.207 28.2C111.207 29.5666 111.741 31.6 111.807 34.3L98.0072 34.7C98.3739 31.9 99.2072 29.7666 100.507 28.3C101.807 26.8333 103.524 26.1 105.657 26.1C107.691 26.1 109.207 26.8 110.207 28.2ZM120.293 49.1C120.726 49.2333 121.193 49.3 121.693 49.3C122.56 49.3 123.226 49.0333 123.693 48.5C124.16 47.9333 124.393 47.1833 124.393 46.25V41.6C124.393 36.6333 125.06 33.05 126.393 30.85C127.726 28.6166 129.66 27.5 132.193 27.5C132.86 27.5 133.36 27.5833 133.693 27.75C134.36 27.25 134.693 26.5166 134.693 25.55C134.693 23.8833 133.76 23.05 131.893 23.05C130.193 23.05 128.693 23.65 127.393 24.85C126.093 26.05 125.093 27.85 124.393 30.25V23.4C123.96 23.2666 123.493 23.2 122.993 23.2C122.126 23.2 121.46 23.4833 120.993 24.05C120.526 24.5833 120.293 25.3166 120.293 26.25V49.1ZM160.983 46.45C160.549 45.5166 159.733 43.5 158.533 40.4C157.666 38.1666 156.883 36.5166 156.183 35.45C155.483 34.3833 154.633 33.6 153.633 33.1C155.766 32.3333 157.416 31.1333 158.583 29.5C159.783 27.8333 160.383 25.9 160.383 23.7C160.383 21.6333 159.849 19.8166 158.783 18.25C157.716 16.6833 156.183 15.4666 154.183 14.6C152.216 13.7333 149.866 13.3 147.133 13.3C144.433 13.3 141.483 13.4666 138.283 13.8L137.883 14.85C138.316 15.85 138.599 16.95 138.733 18.15C138.899 19.3166 138.983 21.0333 138.983 23.3V49.1C139.483 49.2333 139.966 49.3 140.433 49.3C141.366 49.3 142.083 49.0166 142.583 48.45C143.116 47.85 143.383 47.05 143.383 46.05V34H148.133C148.633 34 149.016 33.9833 149.283 33.95C150.416 34.55 151.299 35.4 151.933 36.5C152.599 37.5666 153.399 39.3166 154.333 41.75C155.166 43.95 155.816 45.5333 156.283 46.5C156.749 47.4666 157.249 48.1833 157.783 48.65C158.349 49.0833 159.083 49.3 159.983 49.3C160.849 49.3 161.683 49.15 162.483 48.85V48.4C161.949 48 161.449 47.35 160.983 46.45ZM143.233 19.9C143.133 18.9333 142.916 18.05 142.583 17.25C144.516 17.0833 146.216 17 147.683 17C150.416 17 152.466 17.5833 153.833 18.75C155.199 19.9166 155.883 21.55 155.883 23.65C155.883 25.8166 155.183 27.4833 153.783 28.65C152.416 29.8166 150.499 30.4 148.033 30.4H143.383V23.3C143.383 21.9666 143.333 20.8333 143.233 19.9ZM169.941 48C171.708 49.0666 173.741 49.6 176.041 49.6C177.508 49.6 178.941 49.3666 180.341 48.9C181.775 48.4333 182.941 47.8166 183.841 47.05C184.741 46.2833 185.191 45.45 185.191 44.55C185.191 43.4166 184.691 42.6666 183.691 42.3C182.891 43.5 181.808 44.4666 180.441 45.2C179.108 45.9333 177.608 46.3 175.941 46.3C173.675 46.3 171.858 45.5166 170.491 43.95C169.158 42.3833 168.491 40.2833 168.491 37.65H184.591C185.358 37.65 185.858 37.4833 186.091 37.15C186.358 36.8166 186.491 36.1833 186.491 35.25C186.491 31.45 185.558 28.45 183.691 26.25C181.858 24.0166 179.308 22.9 176.041 22.9C173.741 22.9 171.708 23.4666 169.941 24.6C168.208 25.7 166.841 27.2666 165.841 29.3C164.875 31.3333 164.391 33.7 164.391 36.4C164.391 39.0666 164.875 41.4 165.841 43.4C166.808 45.4 168.175 46.9333 169.941 48ZM180.791 28.2C181.791 29.5666 182.325 31.6 182.391 34.3L168.591 34.7C168.958 31.9 169.791 29.7666 171.091 28.3C172.391 26.8333 174.108 26.1 176.241 26.1C178.275 26.1 179.791 26.8 180.791 28.2ZM191.777 47.5C193.344 48.9 195.494 49.6 198.227 49.6C199.86 49.6 201.21 49.35 202.277 48.85C203.344 48.35 204.244 47.5666 204.977 46.5V49.1C205.477 49.2333 205.927 49.3 206.327 49.3C207.194 49.3 207.86 49.0333 208.327 48.5C208.827 47.9333 209.077 47.1833 209.077 46.25V32.5C209.077 29.5 208.227 27.1666 206.527 25.5C204.827 23.8 202.327 22.95 199.027 22.95C196.627 22.95 194.527 23.3666 192.727 24.2C190.96 25.0333 190.077 26.1833 190.077 27.65C190.077 28.7833 190.627 29.55 191.727 29.95C192.627 28.7166 193.644 27.8 194.777 27.2C195.944 26.5666 197.294 26.25 198.827 26.25C200.86 26.25 202.41 26.8 203.477 27.9C204.544 28.9666 205.077 30.5 205.077 32.5V34.9C204.277 34.4 203.427 34.0166 202.527 33.75C201.66 33.4833 200.56 33.35 199.227 33.35C196.194 33.35 193.81 34.1166 192.077 35.65C190.344 37.1833 189.477 39.2166 189.477 41.75C189.477 44.15 190.244 46.0666 191.777 47.5ZM203.377 45.05C202.277 45.95 200.777 46.4 198.877 46.4C197.144 46.4 195.827 46 194.927 45.2C194.027 44.4 193.577 43.2333 193.577 41.7C193.577 40 194.11 38.7 195.177 37.8C196.244 36.9 197.777 36.45 199.777 36.45C201.51 36.45 202.827 36.7833 203.727 37.45C204.627 38.0833 205.077 38.9833 205.077 40.15V41.4C205.077 42.9333 204.51 44.15 203.377 45.05ZM217.629 48.1C219.163 49.1333 220.946 49.65 222.979 49.65C224.679 49.65 226.163 49.2833 227.429 48.55C228.696 47.7833 229.813 46.6666 230.779 45.2V49.1C231.279 49.2333 231.729 49.3 232.129 49.3C232.996 49.3 233.663 49.0333 234.129 48.5C234.629 47.9333 234.879 47.1833 234.879 46.25V12.9C234.446 12.7666 233.996 12.7 233.529 12.7C232.663 12.7 231.979 12.9833 231.479 13.55C231.013 14.0833 230.779 14.8166 230.779 15.75V25.5C229.879 24.7 228.896 24.0833 227.829 23.65C226.796 23.1833 225.563 22.95 224.129 22.95C221.863 22.95 219.879 23.5166 218.179 24.65C216.479 25.7833 215.163 27.4 214.229 29.5C213.329 31.5666 212.879 33.9833 212.879 36.75C212.879 39.35 213.279 41.6333 214.079 43.6C214.913 45.5333 216.096 47.0333 217.629 48.1ZM228.829 43.65C227.463 45.45 225.679 46.35 223.479 46.35C221.413 46.35 219.829 45.5333 218.729 43.9C217.629 42.2666 217.079 39.9166 217.079 36.85C217.079 33.4833 217.729 30.8833 219.029 29.05C220.363 27.1833 222.213 26.25 224.579 26.25C226.613 26.25 228.163 26.9166 229.229 28.25C230.329 29.55 230.879 31.3666 230.879 33.7V36.3C230.879 39.4 230.196 41.85 228.829 43.65Z" fill="#2F2F2F"/>
</svg>
