<svg width="35" height="35" viewBox="0 0 35 35" fill="none" xmlns="http://www.w3.org/2000/svg">
<path d="M20.9863 2.37882C20.2002 2.72745 19.6875 3.51358 19.6875 4.37491V8.74991H12.0312C5.38672 8.74991 0 14.1366 0 20.7812C0 28.5263 5.57129 31.9853 6.84961 32.6825C7.02051 32.7782 7.21191 32.8124 7.40332 32.8124C8.14844 32.8124 8.75 32.204 8.75 31.4657C8.75 30.953 8.45605 30.4814 8.08008 30.1327C7.4375 29.5243 6.5625 28.328 6.5625 26.2499C6.5625 22.6269 9.50195 19.6874 13.125 19.6874H19.6875V24.0624C19.6875 24.9237 20.1934 25.7099 20.9863 26.0585C21.7793 26.4071 22.6953 26.2636 23.3379 25.6894L34.2754 15.8456C34.7334 15.4286 35 14.8407 35 14.2187C35 13.5966 34.7402 13.0087 34.2754 12.5917L23.3379 2.74796C22.6953 2.1669 21.7725 2.02335 20.9863 2.37882Z" fill="#2C1810"/>
</svg>
